<svg id="图层_1" data-name="图层 1" xmlns="http://www.w3.org/2000/svg" viewBox="0 0 471 324"><defs><style>.cls-1{fill:#2da1e8;}.cls-2{fill:#1d66b0;}.cls-3{fill:#24c9fc;}.cls-4{fill:#999;}</style></defs><title>筑彩网logo_定</title><path class="cls-1" d="M229.28,130.09v18.84l7.08-2.69v5.87l-20.18,7.28v-5.81l7.2-2.69v-20.8h-6.85V124.7h19.83v5.39ZM240,122h-6.61l-4.49-6.36h-2.83L223,122h-6.37l6.14-13.46h6.37L228,111h15.11v4.65h-7.32Zm6.13,30.1-5.19,7h-6.84l6.37-8.5V124.7h23.84v29.12H266l1.77-5.63,4,4-2.24,6.91H258.9v-29H246.15ZM265.51,122H258.9l-4.48-6.36h-2.84L248.51,122h-6.37l6.14-13.46h6.37L253.47,111h15.11v4.65h-7.32Zm-12.87,12.24L258,150.89h-5.42l-5.2-16.64Z"/><path class="cls-1" d="M284,118.09,287,128.62h-6.14l-3.07-10.53Zm0,41h-5.9l4.48-16.09h5.9Zm27.85-45-33.52,1V110l33.52-1Zm-19.59,17.13h5.9v3.42h13.45v5.39H298.11v19h-5.9v-19H278.52v-5.39h13.69Zm4.25-13.22,2.59,10.53h-6.13l-2.6-10.53Zm15.57,41h-5.9l-4.72-16.09h5.9Zm-4.72-30.52h-5.66l4.25-11h5.9Zm22.43-13-14.64,11.5v-6.61L329.74,109Zm0,16.15L315.1,143.3v-6.61l14.64-11.5Zm0,15.9L315.1,159.14v-6.79l14.64-11.5Z"/><path class="cls-1" d="M385.47,153.82V114.91H346.76v44.23h-5.9V109.53h50.51v49.61h-9.56l-2.36-5.32Zm-28.56-26.18,2.36-7.34h6.37L360.21,135l5.43,14.68h-6.13l-2.6-7.58-2.6,7.58h-5.9L353.6,135l-5.19-14.68h6.14Zm9.68-7.34H373l2.36,7.34,2.6-7.34h6.13L378.39,135l5.9,14.68h-6.14l-2.83-7.58-2.6,7.58h-6.13L372,135Z"/><path class="cls-2" d="M110,103V69.68a2.55,2.55,0,0,1,3.53-2.35L152.18,83.4a2.55,2.55,0,0,1,.06,4.68l-38.62,17.21A2.55,2.55,0,0,1,110,103Z"/><path class="cls-3" d="M172.44,142.75l-78.09-16a2.5,2.5,0,0,1-.52-4.73l78.08-34.88a2.56,2.56,0,0,1,3.6,2.34v50.72A2.56,2.56,0,0,1,172.44,142.75Z"/><path class="cls-1" d="M195.11,197.39H70.18a6.06,6.06,0,0,1-6.05-5.93l-1.1-56a6.06,6.06,0,0,1,7.24-6.06l126,25.3a6.06,6.06,0,0,1,4.86,5.93v30.74A6.05,6.05,0,0,1,195.11,197.39Z"/><path class="cls-1" d="M227.24,169.82h-3c-2.79,0-4.4,2.1-4.88,4.58v-4.84h11l-9,15.18h3c3.6,0,5.51-2.14,6.18-5.51V185H218.27Z"/><path class="cls-1" d="M236.31,169.82h-1.94v-.26h6.82v.26H239v7.09h6.16v-7.09H243v-.26h6.85v.26h-2v14.92h2V185H243v-.26h2.2v-7.59H239v7.59h2.17V185h-6.82v-.26h1.94Z"/><path class="cls-1" d="M258.31,179.71a10,10,0,0,0,.39,3.47,3.18,3.18,0,0,0,3.27,1.93,4.08,4.08,0,0,0,4.41-4.4V169.82h-1.94v-.26h4.19v.26h-2v10.89c0,3.08-1.92,4.68-4.78,4.68-4.24,0-6.29-1.54-6.29-5.72v-9.85h-1.94v-.26h6.62v.26h-2Z"/><path class="cls-1" d="M284.3,174.22h-.23c-.31-2.34-1.74-4.79-4.45-4.79a3.3,3.3,0,0,0-3.14,1.65c-.77,1.34-.89,4.31-.89,6.33,0,3.15.12,4.51.69,5.83s1.53,1.89,3.32,1.89c2.3,0,4.29-1.25,4.85-4.55h.26v4.58h-.26c-.07-.27-.3-.4-.84-.4a4.48,4.48,0,0,0-1.35.29,12.36,12.36,0,0,1-2.56.34c-4,0-7.2-2.95-7.2-7.78,0-5.34,4-8.44,7.1-8.44a6.82,6.82,0,0,1,2.66.65,3.09,3.09,0,0,0,1.14.3.61.61,0,0,0,.67-.41h.23Z"/><path class="cls-1" d="M295.16,169l6.51,15.77h1.56V185h-6.56v-.26h2.09l-2.14-5.4h-5.27l-2.14,5.4h1.86V185h-3.73v-.26h1.56Zm1.38,10.11L294,172.72l-2.55,6.36Z"/><path class="cls-1" d="M307.86,169.82h-2v-.26h6.62v.26h-2v14.92h2V185h-6.62v-.26h2Z"/><path class="cls-1" d="M315.45,169.82v-.26h6.82v.26h-2.4l4.7,12,3.68-8.89L327,169.82h-1.54v-.26h6.8v.26h-2.35l4.65,12,5-12h-1.9v-.26h3.76v.26h-1.58l-6.52,15.77-4.91-12.34-5.13,12.34L317,169.82Z"/><path class="cls-1" d="M350.38,169l6.52,15.77h1.55V185h-6.56v-.26H354l-2.14-5.4h-5.27l-2.14,5.4h1.86V185h-3.73v-.26h1.56Zm1.38,10.11-2.56-6.36-2.55,6.36Z"/><path class="cls-1" d="M362.78,169.82h-2v-.26H365l7.61,10.67V169.82H370.7v-.26h4.14v.26h-1.95v15.36l-9.83-13.8v13.36H365V185h-4.16v-.26h2Z"/><path class="cls-1" d="M389.32,179.32h-2.4v-.26H394v.26h-2V185a1.14,1.14,0,0,0-1.18-.71,4,4,0,0,0-1.45.45,7.58,7.58,0,0,1-3.2.65c-4.32,0-7.28-3.14-7.28-7.78,0-5.34,4-8.44,7.1-8.44a6.78,6.78,0,0,1,2.66.65,3.17,3.17,0,0,0,1.15.3.61.61,0,0,0,.67-.41h.23v4.51h-.23c-.29-2.41-1.74-4.81-4.45-4.81a3.3,3.3,0,0,0-3.14,1.65c-.77,1.34-.9,4.33-.9,6.35,0,3.15.13,4.53.69,5.86s1.53,1.89,3.32,1.89c3,0,3.32-1.26,3.32-2.87Z"/><path class="cls-4" d="M86.12,231.32v-.26c.36.18.8.92,1.33,2.24q1,2.37,1.71,2.37v-1.19a26.32,26.32,0,0,0-.27-5.93c0-1,0-1.88,0-2.76,0-2.38,0-4.35.12-5.93a2.23,2.23,0,0,0,.26-1.19c0-.53-.75-.79-2.24-.79h-.13a53.79,53.79,0,0,0-7.51.42,4.54,4.54,0,0,0-1.06.26,2.51,2.51,0,0,1-1.44.27,5.69,5.69,0,0,0-.92.26,7.82,7.82,0,0,1-1.06.27,1.07,1.07,0,0,0-.66.4.12.12,0,0,1-.13.13v1.18a1.12,1.12,0,0,1,.13.66,1.18,1.18,0,0,1,.13.4v1.05a3.69,3.69,0,0,1,0,2c0,.35.14.48.4.39h.13l4.74-.8h.27c.52.09.79,0,.79-.4v-.26l-.8-2.24-.26-.53a3.13,3.13,0,0,0-.4-.78c0-.09,0-.14-.13-.14a1.11,1.11,0,0,1-.13-.52.46.46,0,0,1,.52-.53c.79,0,1.41,1,1.85,2.89a4.14,4.14,0,0,0,.93,2.24l.27,2.37L87,225.13a3.77,3.77,0,0,1,.66-.13q.27,0,.27.39c.08.18,0,.36-.26.53l-.14.13a34.08,34.08,0,0,1-4,1.46c0,.18-.17.31-.52.4a1.48,1.48,0,0,0-.53.53c-.09,1.05-.17,2.59-.25,4.6-.09,1-.13,1.72-.13,2.24a2,2,0,0,1-.78,1.59l-.14-.13c0-2.11,0-4.18,0-6.2,0-.08,0-.39,0-.92s-.13-.83-.13-.92c-.52.18-1.23.44-2.11.79a10,10,0,0,1-3.68,1.07.36.36,0,0,1-.26-.14h-.4a5.41,5.41,0,0,0-.26,1.45v2.37c0,.09,0,.61-.12,1.58s-.13,1.49-.13,1.58a.38.38,0,0,1-.13.26c0,.36-.14.53-.4.53s-.53-.26-.53-.52a35.19,35.19,0,0,1,.39-5.41l0-9.35a8.58,8.58,0,0,1-.27-1.45,3.4,3.4,0,0,1-.13-.79,1.05,1.05,0,0,0-.14-.4l-.26-.39a4.56,4.56,0,0,1-.27-1.84c0-.18.13-.22.4-.14h.13c.17,0,.35.13.53.4s.17.39.26.39l.13-.13a32.86,32.86,0,0,1,9.23-1.34c.08,0,.52,0,1.31-.13h1.45a2.16,2.16,0,0,0,.53-.14h.4a3.41,3.41,0,0,0,.65.13,5.93,5.93,0,0,0,.79-.13l.66-.13H89c1,.52,1.53,1.18,1.45,2a7.64,7.64,0,0,1-.26,1.71,13.52,13.52,0,0,0-.13,1.58c-.09,1.67-.13,3.39-.12,5.14a77.61,77.61,0,0,0,.41,7.91c0,.17.09.79.27,1.84l.13.79c-.09.18-.17.27-.26.27s-.27,0-.27.13v.13a.34.34,0,0,1-.39.39c-.62-.17-1.41-1.18-2.38-3Zm-11.73-1.95.27.4a1.83,1.83,0,0,1,.66-.4.76.76,0,0,0,.39-.26l.4-.27c.08,0,.17.09.26.27h.26a8.23,8.23,0,0,0,1.06-.14c-.36.09-.27.05.26-.13a14.58,14.58,0,0,0,2.89-1.19l.27-.4A2.86,2.86,0,0,0,81,226.2a2.16,2.16,0,0,0-.14-.53,6.42,6.42,0,0,1-1.58.27,5.8,5.8,0,0,0-1.58.4,22.13,22.13,0,0,0-2.63.53c-.44.09-.66.22-.66.4Z"/><path class="cls-4" d="M130.65,241.11a32.23,32.23,0,0,1-2.64-2.63,3.19,3.19,0,0,1-.26-.26c-.36-.53-.66-.79-.93-.79a6.05,6.05,0,0,1-3.81,1.85c-1.68-.08-2.51-.39-2.51-.91l.13-.27a2.07,2.07,0,0,1,.79.26,1.27,1.27,0,0,0,.66.27c1.14,0,2.42-.71,3.82-2.12a4.5,4.5,0,0,1-.66-.92c-.62-.88-1.24-1.31-1.85-1.31a.92.92,0,0,0-.39.13,5.42,5.42,0,0,1-1.45.4,9.09,9.09,0,0,0-.93.13c-.61.09-1,.14-1.05.14-.44.08-.66.26-.66.52a2.44,2.44,0,0,1,0,.27v.26l-.67-.66-.26-.39v-.66c0-.09.22-.22.66-.4l.26-.13a14.87,14.87,0,0,0,1.85-.27,2.78,2.78,0,0,0,1.7-.4c-.26,0-.39-.21-.39-.65V232a15.05,15.05,0,0,0,1.44-1.32l.53-.53a2,2,0,0,0,.39-1.45v-2.1a3.75,3.75,0,0,0-1.84.79,3,3,0,0,1-2,.79,1.26,1.26,0,0,1-.53-.66c0-.35,0-.52.13-.52a4.37,4.37,0,0,1,1.05-.66,1.57,1.57,0,0,0,.66-.27c1.67-1.23,2.54-2.24,2.63-3v-1.45h-.92l-5.27,1.2H118a.47.47,0,0,1-.53-.53c0-.35.26-.62.78-.79a10.59,10.59,0,0,1,1.32-.53l.13-.13a21.38,21.38,0,0,0,3.82-2v-.13a3.93,3.93,0,0,0-1.72-1.18q0-.13-.66-.66c-.88-.7-1.31-1.27-1.32-1.71,0-.09.09-.17.26-.26a.75.75,0,0,0,.53-.14l3.57,3.16.13.13.13-.13a3.68,3.68,0,0,0-.92-2.5,1.72,1.72,0,0,0-.4-.27.93.93,0,0,1-.66-.92.83.83,0,0,1,.66-.53c.7,0,1.22.44,1.58,1.32a2,2,0,0,0,.66,1.05l.26,1.19a.4.4,0,0,0,.27-.14H126a18.34,18.34,0,0,0,3.29-3c0-.44.26-.66.79-.67.35,0,.53.14.53.4q0,1-3,3.56a3.55,3.55,0,0,0-.52.4,2.1,2.1,0,0,0-1.32,1.72c0,.17,0,.26-.13.26a1.15,1.15,0,0,0,.53.13,5.06,5.06,0,0,0,2.1-.66,5.9,5.9,0,0,1,2.11-.53h.53c.26.08.35.21.26.39a.9.9,0,0,1-.65.79L126,221.1a.36.36,0,0,1-.13.26.79.79,0,0,0,.39.66c.27.09.4.22.4.39-.09.71-.3,1.15-.66,1.32,0,.09,0,.13-.13.13v1.06a8.53,8.53,0,0,0,2.37-.53,8.16,8.16,0,0,1,2.36-.54c.27,0,.4.18.4.53s-.26.62-.79,1.06l-.26.26-1.71,1.72a8.27,8.27,0,0,0-.92,1.18L126,229.92a3.6,3.6,0,0,0-.53,2.24,15.82,15.82,0,0,0,4.22-1.85.53.53,0,0,0,.13-.39.42.42,0,0,1,.26-.4v-2.24c0-.17.21-.31.66-.4s.65.4.65,1.19c0,.35.05.53.14.53a1,1,0,0,0,.39-.14h.4a.57.57,0,0,1,.39.13l5,2.76h.13c.26-.09.48-.66.65-1.72v-1.44c.08-1.06-.05-1.67-.4-1.85a3.64,3.64,0,0,0-.92.53,2.2,2.2,0,0,1-.52.4l-1.45,1.32c0,.09-.14.13-.4.13s-.48-.26-.39-.52v-.27a2.89,2.89,0,0,1,.39-.79,8.53,8.53,0,0,0,.39-2.11,1,1,0,0,0,.13-.39c.09-.27.26-1.15.52-2.64a23.17,23.17,0,0,0,.39-2.51,24,24,0,0,1,.13-3v-.26a1.18,1.18,0,0,0-.13-.4c.08-.35.26-.52.52-.52a.73.73,0,0,1,.79.65,2.13,2.13,0,0,1,.14,1.06,2.75,2.75,0,0,1-.13,1.18c0,.09-.05.49-.13,1.19a12.25,12.25,0,0,0-.26,1.32v.13q-.13.66-.39,2a12.32,12.32,0,0,0-.52,3,3.23,3.23,0,0,0,1.44-.53,1.4,1.4,0,0,0,.53-.27q2.64-1.05,5.14-2.25h.52c.35-.09.53,0,.53.27,0,.52-1,1.1-2.89,1.71-1.32.45-2,.8-2,1.06a8.89,8.89,0,0,0,.14,1.32,9.37,9.37,0,0,1,.13,1.32,7.91,7.91,0,0,1-.78,3.55c0,.18.35.49,1.05.92l.26.13c.09.09.45.44,1.06,1.06a6.17,6.17,0,0,1,.93,1,1.09,1.09,0,0,1,1,.92,1.44,1.44,0,0,1-.52.92h-.13c0-.08-.09-.13-.27-.13l-2.9-3c-.35-.18-.75-.4-1.19-.66l-.13.13q-2.24,3.18-4.08,3.31H132a1.33,1.33,0,0,0-1.05-.26c-.88-.61-1.28-1.27-1.19-2v-.53a2,2,0,0,1,.26.39,2.2,2.2,0,0,0,2.11,1.58,9.44,9.44,0,0,0,2-.4c1.94-.88,3-1.85,3.29-2.91,0-.17,0-.26-.13-.26l-4.61-2.49h-.53a4.09,4.09,0,0,0-1.31,1.45c-.18.09-.32.4-.4.92l-.13.13a3.78,3.78,0,0,1-.53.93,5.1,5.1,0,0,1-.52,1c-.09.09-.26.31-.53.66a4.13,4.13,0,0,0-.78,1.59,6.84,6.84,0,0,0,2.37,2.76,1,1,0,0,1,.4-.66,1.84,1.84,0,0,1,.26.66.36.36,0,0,1,.13.26c0,.09.09.18.27.26a1.15,1.15,0,0,1,.4.66c-.09.53-.27.83-.53.93A.54.54,0,0,1,130.65,241.11Zm-6.24-21.46a6.08,6.08,0,0,0-1.31.79c.87,0,1.32-.17,1.32-.52Zm-.63,12.78c0,.18.18.26.53.26a.4.4,0,0,1,.26-.13l-.39-.39a1,1,0,0,1-.4.13Zm1.32,1.45a4.71,4.71,0,0,0,1.32,1.31c.18.18.31.26.4.26a6.51,6.51,0,0,0,2.23-3.43,1.15,1.15,0,0,0-.39.14,1,1,0,0,1-.4.13A18.06,18.06,0,0,1,125.1,233.88Zm2.75-8.31a4.3,4.3,0,0,0-1,.27c-1.06.18-1.49,1.06-1.31,2.64.35,0,1-.62,1.84-1.85a9.78,9.78,0,0,1,.65-.93A.12.12,0,0,0,127.85,225.57Z"/><path class="cls-4" d="M168.29,233.66l-.13-.27c0-.08,0-.26,0-.52a6,6,0,0,1,.39-2.25,1.41,1.41,0,0,0,.53-.79,1.62,1.62,0,0,1,.26-.52,23.42,23.42,0,0,0,2.24-2.38v-2.11a3.12,3.12,0,0,1-.14-1.18,1.89,1.89,0,0,0-.53-1.58,2.68,2.68,0,0,0-1.19-.13c-1.32-.09-2-.3-2-.66s.22-.57.66-.66a2.51,2.51,0,0,1,.53.13,3.48,3.48,0,0,0,.79.13H170c.44.09.66,0,.66-.26a3.69,3.69,0,0,0-.13-.92,5.29,5.29,0,0,1-.13-.93c.08-.35.26-.52.52-.52a11.6,11.6,0,0,1,1.45.78.4.4,0,0,1,.27.14c.43.08.65.26.65.52H172a1,1,0,0,0-.13.4l.13.26a1,1,0,0,1,.13.4h.27a8.09,8.09,0,0,0,1.84-.27l.13-.13c.27-.44.48-.62.66-.53.7.09,1.06.31,1.06.66l-.14.13q-.53,1.05-2.76,1.32h-.53l-.13.13v.79a10.61,10.61,0,0,0,.14,1.45c.08.71.13,1.23.13,1.59a5.74,5.74,0,0,0,2.24-1.46,6.46,6.46,0,0,0,.66-.4,6.39,6.39,0,0,0,1.84-1.45v.13a8.13,8.13,0,0,1-2.37,2.51c-1.58,1.23-2.36,2.34-2.36,3.3.09,0,.13.09.13.26v1.32c0,.52,0,1,0,1.31,0,.09-.05.62-.13,1.59s-.26,1.62-.26,1.71q-.66,4.35-2.1,4.35h-.27c-.35-.43-.57-.7-.65-.78s-.14-.09-.14-.27Zm1.05-.93v.4a11.2,11.2,0,0,0,.4,2,7,7,0,0,0,.79,2.5h.14q1.31-1.57,1.17-7a15.74,15.74,0,0,0-.14-2.24c-.17,0-.35.13-.52.4l-.26.26A5.32,5.32,0,0,0,169.34,232.73Zm13.18,0a7,7,0,0,1-.67-2.37,3.73,3.73,0,0,1-.13-.65.12.12,0,0,0-.13-.14v-.13a.59.59,0,0,1,.66-.66c.61,0,.92.61.92,1.84a.55.55,0,0,0,.4-.13,1.64,1.64,0,0,1,.39-.26,1.74,1.74,0,0,0,1-1.85v-.79c0-.08,0-.39.13-.92l.13-.79c.09-.27,0-.4-.26-.4h-.14c-.61.09-1.54.27-2.76.54a20.79,20.79,0,0,0-2.77.53c-.44.7-.65,2.15-.65,4.35l-.78,5.14c-.35,1.05-.79,1.63-1.31,1.71q0,.14-.27,0h-.13a2,2,0,0,0-.13-.52l-.13-.4a2,2,0,0,1,.26-.79h.53c.26-1,.43-1.85.52-2.37s.13-1,.13-1.06a23.56,23.56,0,0,1,.26-2.9c.17-1.4.3-2.45.39-3.16.08-2.19.25-4.35.51-6.46,0-2.54.43-3.82,1.31-3.82h.26l.4.4a3.89,3.89,0,0,0,2.5,1.57,1.62,1.62,0,0,0,.93-.4,1.44,1.44,0,0,1,.52-.26v-.4a20.28,20.28,0,0,1-2.24-.26c-1,0-1.45-.21-1.45-.65a.58.58,0,0,1,.66-.66,5.94,5.94,0,0,1,1.32.26,5.09,5.09,0,0,0,.92.13c.08,0,.48,0,1.19.13h1l.26.13c.09,0,.13,0,.13.13a2.9,2.9,0,0,1-1.18,1.72,7.65,7.65,0,0,0-1.18,1.18,8.9,8.9,0,0,1,3-.79h.13c.35-.09.53,0,.53.26a.9.9,0,0,1-.27.66,1.37,1.37,0,0,0-.66.26,20.83,20.83,0,0,1-5.13.94l-.4-.14h-.39a.77.77,0,0,1-.4-.65c0-.27.39-.53,1.19-.8.52-.08.83-.22.92-.39-.18,0-.22-.09-.13-.27a4.42,4.42,0,0,0-1.45-.52c-.36,0-.58-.09-.66-.26-.27.17-.49,1.27-.66,3.29-.08,1.85-.21,2.82-.39,2.9v1.19l.13.13a1,1,0,0,0,.39.13q5.28-.4,5.67-1.33a8,8,0,0,0-.14-1.19V221.1a.36.36,0,0,0,.26-.13l.27-.13c.61.17,1,.44,1.05.79V224l2.5-.66a3.35,3.35,0,0,1,2-.8c.52,0,.79.13.79.39v.14l-.27.26a1,1,0,0,1-.13.4,20.71,20.71,0,0,0-2,.66q-.13,0-1.32.27a7.26,7.26,0,0,1-1.45.39l-.13.14a.35.35,0,0,0-.26.13c-.09.35-.22.84-.39,1.45a13.94,13.94,0,0,0-.39,2.76,7.8,7.8,0,0,0,1.71-.26,13.88,13.88,0,0,1,1.58-.14c.17,0,.26.05.26.13a1.18,1.18,0,0,1,.4.13,6.49,6.49,0,0,0,1.32.13h.79a.38.38,0,0,0,.26-.13h.13c.27,0,.4.17.4.53a4,4,0,0,1-1.45,2.5A9.63,9.63,0,0,0,190,234h.66a2.38,2.38,0,0,1,.66-.13c0-.09.17-.17.53-.26a.8.8,0,0,0,.39.52q.14.66-1.32.93a9.32,9.32,0,0,1-1.71.4,1.42,1.42,0,0,1-.78.26c-.27,0-.4-.08-.4-.26a.36.36,0,0,0-.14-.26,9.2,9.2,0,0,0-2.24-.13,8.14,8.14,0,0,0-1.45.13c0,.09,0,.22,0,.4a5.33,5.33,0,0,0,.13.92,3.75,3.75,0,0,1,.13.92,1.29,1.29,0,0,1-1.05,1.06.23.23,0,0,1-.26-.26Zm2.24,1.18h1.45a13.36,13.36,0,0,0,1.58.13,1,1,0,0,0,.4.13q.78,0,2.49-3.3c0-.26-.48-.44-1.45-.52h-.92a6.34,6.34,0,0,0-2,.4q-.92.14-1.44.27l-.4.39a1.51,1.51,0,0,0-.52.53c.09.26.09.4,0,.4s-.14.13-.4.13a.36.36,0,0,1,.13.26A5.36,5.36,0,0,0,184,234,1.33,1.33,0,0,1,184.76,233.88Z"/><path class="cls-4" d="M212.39,230.66a3.91,3.91,0,0,1,.13-1.18,1.63,1.63,0,0,1,.4-.66,5,5,0,0,0,.39-1.18l.13-.14V228a5.47,5.47,0,0,1-.13,1.05,7.59,7.59,0,0,0-.13,1.19v.39l.13.14c.35,0,1.15-.84,2.37-2.51s2.54-3.3,3.68-4.89l.13-.13a29.2,29.2,0,0,0,2.23-3.69c.44-1,.7-1.58.79-1.85v-.26a7.94,7.94,0,0,0-.79-1.05,3,3,0,0,0-1.06-.53c0-.09,0-.13-.13-.13h-.26a.38.38,0,0,1-.27.13l-.92,1.06-.26-.13a2.24,2.24,0,0,1-.79.53v-.14a4.36,4.36,0,0,1,2.5-2.5,3,3,0,0,1,1.71.92,2,2,0,0,0,.93.52V216a1.84,1.84,0,0,0,.26-.4c.26-.44.52-.66.79-.66s.52.13.53.4a2,2,0,0,1-.27.79,1.64,1.64,0,0,0-.39.92,1,1,0,0,0,.13.4,19,19,0,0,1,1.85,2l.4.39c1.05,1,1.58,1.71,1.59,2.24,0,1.05-.44,1.58-1.32,1.58a1,1,0,0,1,.13-.39,2.52,2.52,0,0,0,.13-.66.73.73,0,0,0-.27-.79,27.85,27.85,0,0,0-2.24-2.24,1.31,1.31,0,0,1-.27-.39c-.35-.35-.56-.53-.65-.53h-.14c-.09,0-.22.23-.39.66a1,1,0,0,0-.13.4,1.09,1.09,0,0,1-.13.39,6.09,6.09,0,0,0-.66,1.19q-.13.27-1.05,1.59a14.89,14.89,0,0,1-1.18,1.71l-.53.53a1.46,1.46,0,0,1-.26.39c-1.4,1.85-2.85,3.7-4.33,5.54-.71.71-1.23,1.06-1.59,1.06C212.66,232.11,212.39,231.63,212.39,230.66Zm10.29,6.44v-.66c0-.7,0-1.76.13-3.16s.13-2.33.12-3a13.58,13.58,0,0,0,0-2.9v-.92a4.21,4.21,0,0,0-1.85.66,3.13,3.13,0,0,1-1.05.4c-.36,0-.49-.13-.4-.4q0-.92,2.37-1.71a3.7,3.7,0,0,0,1.45-.53l1.05-.14c.61-.09,1-.13,1.06-.13s.3-.14.92-.14c1.93,0,2.9.66,2.9,2q0,2.39-3.15,5.41a1.81,1.81,0,0,1-1.19.66,2.16,2.16,0,0,1-.66-.13,6.18,6.18,0,0,0-.39,2.37c0,.36,0,.71,0,1.06.43-.53.74-.93.92-1.19,0-.09,0-.13.13-.13l.13-.26,3.55-5.15c.35-.61.83-1.36,1.44-2.24a19.16,19.16,0,0,0,1.32-1.85c.69-1,1.09-1.54,1.18-1.72a3.56,3.56,0,0,0,.92-1.31c.61-1.06,1.13-1.59,1.58-1.59s.61.53.53,1.58v.13q.13,3.57.54,6.85a5.1,5.1,0,0,0,.52-.92,14.51,14.51,0,0,1,.92-1.71v.13a4.42,4.42,0,0,1-.39,1.71,3.77,3.77,0,0,0-.26.93,3.93,3.93,0,0,1-1.31,2.76h-.27c-.35,0-.52-.26-.52-.79,0-.17-.05-1.23-.15-3.16-.17-2.1-.26-3.29-.26-3.55,0-.44,0-.93,0-1.45l-.13-.13-.53.52-8.27,12.27q-1.19,2.78-2.37,2.91C222.86,238.42,222.69,238,222.68,237.1Zm1.7-7.51v.13c-.09,1,.14,1.45.66,1.44a.54.54,0,0,0,.4-.13q2.63-2.64,2.62-4.48c-.09-.53-.57-.83-1.45-.92a4.55,4.55,0,0,0-2.24.4c0,.26,0,.49,0,.66v.79a2.51,2.51,0,0,1,.13.53,8.7,8.7,0,0,0-.13.92Zm14.5,3.65v-.65a6.46,6.46,0,0,1,.79,1.57,4.17,4.17,0,0,0,.27.93c.09,0,.13-.13.13-.4,0-.53,0-1.23-.14-2.11s-.13-1.66-.13-2.1a13.2,13.2,0,0,1,.13-1.58c0-.62,0-1.1,0-1.45a7.59,7.59,0,0,0-.13-1.19v-.92a9.15,9.15,0,0,1,.12-1.32V222.7a5.78,5.78,0,0,0-.26-1.31,11.62,11.62,0,0,1-.14-1.19,2.82,2.82,0,0,0-.65,2,4.05,4.05,0,0,1-.13.79h-.13v-.4c0-.17,0-.65.12-1.45.09-.61.14-1,.14-1.05a2.32,2.32,0,0,0,.12-.66,3.2,3.2,0,0,0-.26-.92,1.33,1.33,0,0,1-.26-1.05.59.59,0,0,1,.65-.4c.35,0,.71.39,1.06,1.18a.43.43,0,0,1,.13.27,25.45,25.45,0,0,1,.8,6.71c0,.53,0,1.32-.12,2.38s-.13,1.84-.13,2.37c0,1,.09,2.41.27,4.34s.14,3.39.14,4.35v.92a.9.9,0,0,1-.65.8.76.76,0,0,1-.53-.27Q238.9,237.86,238.88,233.24Z"/><path class="cls-4" d="M288.15,240a5.61,5.61,0,0,0-1.06.14h-1.32l-4.74-.91a3.66,3.66,0,0,0-1.59-.26l-5.4-1a.36.36,0,0,1-.26-.14c0-.08,0-.08-.13,0a1.67,1.67,0,0,0-.54-.26,6.82,6.82,0,0,0-2.63-.78,3.61,3.61,0,0,0-.66.13,3.48,3.48,0,0,1-.79.13,5.2,5.2,0,0,1-1.71-.26c-2-1-3-1.79-3-2.5a5.17,5.17,0,0,1,.79-.26,8,8,0,0,1,2.64.65,5.51,5.51,0,0,0,1.18.26,3.46,3.46,0,0,0,.79.4h.53l.53-.93v-.65c0-1.67-.84-3.87-2.52-6.59a2.53,2.53,0,0,0-.26-.65,3.82,3.82,0,0,0-.4-.53,1.53,1.53,0,0,0-.4-.26.85.85,0,0,1-.53-.79c0-.27.4-.4,1.19-.4q3,5,3.17,5.39c.09.27.22.71.4,1.32a7,7,0,0,1,.53,2.24,3,3,0,0,1-.26,1.32,3.91,3.91,0,0,1-.26.79v.13c0,.18.53.4,1.58.66a5.54,5.54,0,0,1,1.19.52l1.84.66a17.84,17.84,0,0,1,4,.78,15.12,15.12,0,0,0,2.37.52q1.85.13,3.69.12h4.48a1.18,1.18,0,0,1,.4-.13c.52.09.83.31.92.66.09.61-.22.88-.92.79a10.35,10.35,0,0,1-1.32-.13A10.45,10.45,0,0,0,288.15,240Zm-18-19.59-1.71-1.84c0-.09-.09-.22-.27-.4a1.07,1.07,0,0,1-.39-.65c0-.44.26-.66.78-.67h.13l2.12,2.9a6.06,6.06,0,0,1,.53,2.11v1.05h-.13c-.26,0-.39,0-.39-.13a4.27,4.27,0,0,1-.27-1.05,2.08,2.08,0,0,1-.13-.53A3.58,3.58,0,0,0,270.18,220.4Zm1.6,5.93c0-.44.3-.62.92-.53H273l.13-.27h.26l4.75-1.06a2.85,2.85,0,0,0,.92-.4.43.43,0,0,0,.26-.39c0-.18,0-.27.13-.27a5.93,5.93,0,0,1,.13-.79,7.72,7.72,0,0,0,.13-1.05v-.13c0-.18,0-.27-.13-.27s-.27-.09-.53,0q-3.3-.51-3.43-4.08c.08-1.31.34-1.93.79-1.84.17,0,.26.13.26.39v.66a2.11,2.11,0,0,0-.13.66c.18,1.93,1.1,3,2.77,3.16h.4a11.78,11.78,0,0,0,.13-2c0-.35,0-.66,0-.92l-.13-.13a10.57,10.57,0,0,0-.13-1.19v-.79a11.3,11.3,0,0,1-.53-1.84c.08-.35.26-.53.52-.53a1.45,1.45,0,0,1,.79.26,15.77,15.77,0,0,1,.54,6.32.24.24,0,0,0,.27.27,9.33,9.33,0,0,0,3.29-2v-.26l-.14-.13c0-.17.22-.31.66-.4a1.65,1.65,0,0,1,.92.26.12.12,0,0,1,.14.13,2.48,2.48,0,0,1-.92,1.32A18.81,18.81,0,0,1,281,220.9a4,4,0,0,0-.66,2.38l.27.13a36.86,36.86,0,0,1,4.61-1.46,7.91,7.91,0,0,0,1.18-.27,1.18,1.18,0,0,0,.53-.13,2,2,0,0,1,.52-.13q.93,0,.93.39c-.09,1-.83,1.5-2.24,1.59,0-.35-.17-.48-.53-.4a4.11,4.11,0,0,0-1.18.27,2.09,2.09,0,0,1-.66.26,19.57,19.57,0,0,0-3.29,1.2,26.63,26.63,0,0,1-3,1.06,1.27,1.27,0,0,0-.92.13,3.57,3.57,0,0,1-.79.13,4,4,0,0,0-.66.14l-.13.13a2.08,2.08,0,0,0-.53.13,7.44,7.44,0,0,1-1.84.4C272,226.85,271.78,226.68,271.78,226.33Zm7.13,9.33a3.78,3.78,0,0,1-.27-.78,9.88,9.88,0,0,1-.52-1.45,2.16,2.16,0,0,0-.14-.53,11.12,11.12,0,0,0-.4-2.5c-.09-.27-.22-.62-.39-1.06a4.13,4.13,0,0,1-.54-1.84V227c.09-.17.35-.26.79-.26.27,0,.48.39.66,1.18a4.38,4.38,0,0,0,.27,1.06h.13a6,6,0,0,0,1.05-.53,1.4,1.4,0,0,0,.53-.27,12.47,12.47,0,0,1,4.74-1.19c.7.08,1.06.22,1.06.39v.13a8.71,8.71,0,0,0-.39,1.32l-.53.53a.77.77,0,0,1-.53.52l-.13.53a2.68,2.68,0,0,0-.26.66,17.18,17.18,0,0,1-4.34,2.65V234a.52.52,0,0,1,.39.53c0,.88-.17,1.31-.52,1.32A2.17,2.17,0,0,1,278.91,235.66Zm-.14-5.53a6.27,6.27,0,0,0,.4,1.58,2,2,0,0,1,.13.53,8.91,8.91,0,0,0,4.34-2.91q.14-.39.27-.39l.26-.27a.54.54,0,0,0,.26-.53h-.66a2.11,2.11,0,0,1-.66.13,7.49,7.49,0,0,0-1.05.27,7.82,7.82,0,0,0-1.05.39,1.49,1.49,0,0,0-.53.26h-.13a4,4,0,0,0-1.06.67A.36.36,0,0,0,278.77,230.13Z"/><path class="cls-4" d="M321.31,236.1V236a27.13,27.13,0,0,0,.38-5.53v-2.9a6.35,6.35,0,0,0-.27-.92,20.83,20.83,0,0,0-1.06-3.56c-.35,0-.66.27-.92.79L315,228.48c0,.17-.13.26-.4.26a.84.84,0,0,1-.66-.53c.09,0,.14-.08.14-.26a32.41,32.41,0,0,0,5.25-5.55q1.45-1.83,2.77-3.56l.13-.39,1.05-2v-.13c0-.7.3-1,.91-.93q.27-.14.27.27c0,1.31-.74,2.9-2.23,4.74-.61.71-.92,1.19-.92,1.46a1.31,1.31,0,0,0,.26.65,1.05,1.05,0,0,1,.14.4,23.75,23.75,0,0,1,1.07,8.69l.26.13c.18,0,.26.05.27.13a9.33,9.33,0,0,1-.79,4,1.16,1.16,0,0,1-.78.66C321.44,236.41,321.31,236.28,321.31,236.1Zm9.89,5.65v-.26c-.09-.18,0-.27.14-.27h.13a.35.35,0,0,0,.26.13H332q.4-.79,1.05-2.37a52.93,52.93,0,0,0,1.17-10.15c0-.61,0-1.49-.14-2.63a17.28,17.28,0,0,1-.14-3.56,1.46,1.46,0,0,0-.26-.53V222a1.38,1.38,0,0,1,.52-.66,3.17,3.17,0,0,0-.79-.52,1.31,1.31,0,0,1-.39-.27,20.51,20.51,0,0,0-3.17-1.31h-.13l-.27.26a9.75,9.75,0,0,1-1.31,2.25l-2.5,3.3c-.17.35-.39.53-.65.53s-.49-.18-.4-.53a1.83,1.83,0,0,1,.66-1.19l.39-.52c.7-.88,1.09-1.37,1.18-1.46a8.21,8.21,0,0,1,.53-.79,4.24,4.24,0,0,0,1.18-2.51h-.39c0-.27.17-.44.52-.53s.53-.22.53-.4v-.39q.26-1.59,1.05-1.59c.43,0,.65.18.66.53v.13a8.79,8.79,0,0,0-.53,1.45V218l.27.26,8.44,4.06a2.23,2.23,0,0,0,.92.27q.93.26.93.39c0,.53-.18.79-.53.79a9.13,9.13,0,0,1-3.43-1.18,2.3,2.3,0,0,0-1.58-.79h-.13A15.07,15.07,0,0,0,335,224c0,.09,0,.79.13,2.11s.14,1.94.14,2.11v.92a54.7,54.7,0,0,1-1.43,10.81c-.61,1.93-1.22,2.94-1.84,3C331.56,242.85,331.29,242.45,331.2,241.75Zm-2.54-18.57c-.09-.44.17-.62.79-.53a1.18,1.18,0,0,1,.66.79q0,3.42.28,8.43a2.08,2.08,0,0,0,.27.92,3.4,3.4,0,0,1,.13.79c.09.26-.13.44-.65.53s-.84-.7-.93-2.11,0-2.63,0-3.95c0-.09-.09-.74-.27-2-.18-1.5-.27-2.33-.27-2.51Z"/><path class="cls-4" d="M367.28,241c0-.26,0-.44,0-.52a22.52,22.52,0,0,1,.39-4.09v-.26a1,1,0,0,0,.13-.4c.09-.35.21-1.36.39-3s.26-2.77.26-3,0-.79,0-1.32v-1.44c-.09-.71-.18-1.89-.27-3.56l-.13-.27a5.58,5.58,0,0,0-1.19,1.46,8.89,8.89,0,0,1-.65.79c-.09.09-.49.53-1.19,1.32s-1.14,1.28-1.31,1.45a.74.74,0,0,1-.53.26H363c-.26.09-.39,0-.39-.4a1.64,1.64,0,0,1,.39-.92.38.38,0,0,0,.26-.14c.35-.35.83-.87,1.45-1.58a19.75,19.75,0,0,0,2.1-2.64l.13-.13,1.71-2.51c.17-.09.35-.39.52-.92s.22-.7.4-.79a3.49,3.49,0,0,0,.39-.93,2.93,2.93,0,0,0,.4-.79,3.75,3.75,0,0,0,.12-1.84v-.27c.09-.26.35-.43.79-.52.27,0,.4.17.4.52a8.7,8.7,0,0,0,.13.92,15.88,15.88,0,0,1-.65,2.24q-1.85,3.18-2.23,4.09a21.14,21.14,0,0,1,.54,5.54v.92a32.76,32.76,0,0,1-.26,3.29,29.65,29.65,0,0,0-.26,3.3v.26a1.53,1.53,0,0,0,.27-.4c.17-.17.26-.3.26-.39a2.65,2.65,0,0,1,.13-1l.13.13v.39c-.43,4.92-1.12,7.47-2.09,7.65ZM384,235.84a48.22,48.22,0,0,0-5.14-.25,23.92,23.92,0,0,0-2.9.27,23.1,23.1,0,0,1-2.9.27c-.53,0-.79-.22-.79-.66a.78.78,0,0,1,.26-.53l3.43-.4.26-.26c-.09,0-.18-.09-.26-.27a4.64,4.64,0,0,1-.14-1.58,3.61,3.61,0,0,1,.13-.66V231c0-.35-.05-.92-.14-1.71a13.36,13.36,0,0,1-.13-1.58v-2.24c-.1-1.14-.14-2.46-.15-3.95v-.66c0-.09.14-.13.4-.13a.54.54,0,0,1,.66.26,1.12,1.12,0,0,1,.13.66,3.73,3.73,0,0,1,.13.65c0,.09,0,.36,0,.8a6.91,6.91,0,0,0-.14.79q1.32-.27,1.84-5.28a18.77,18.77,0,0,0-4.35.8,3.61,3.61,0,0,1-.66.13,4.9,4.9,0,0,1-.79.14c-.26.09-.44-.09-.52-.53s.7-.83,2.1-.92c.88-.18,1.75-.31,2.63-.41a1,1,0,0,0,.4-.13h.13a8.37,8.37,0,0,1,1.19-.26l.13-.13v-3c0-.17.22-.26.66-.26s.66.17.66.52a3.61,3.61,0,0,0,.13.66,5.85,5.85,0,0,1-.12.92,5.71,5.71,0,0,0-.14,1.06l.14.13a28.84,28.84,0,0,1,4.87-.4h.13c.35-.09.53,0,.53.39,0,.7-.61,1.1-1.84,1.19-.09,0-.22-.09-.39-.26a2.12,2.12,0,0,0-.54-.13,10.12,10.12,0,0,0-2.76.26,10.86,10.86,0,0,0-1.05,3.83h.13a48.65,48.65,0,0,1,5.27-1.72h.79c.71.18,1,.57.93,1.19a17.57,17.57,0,0,1-.13,2v8a5.68,5.68,0,0,0,.14.66v.66c0,.44,0,.88,0,1.31.08.27.21.4.39.4a1.75,1.75,0,0,0,.92.13,4.28,4.28,0,0,0,1.32-.27,10,10,0,0,1,1.32-.13.75.75,0,0,1,.79.26l.13.26c0,.53-.31.84-.92.93-.09,0-.57,0-1.45-.13h-1.85c-.35,0-.52.05-.52.14v1.44c-.09,0-.22.14-.39.4s-.31.4-.4.4-.62-.57-1.32-1.71A1.3,1.3,0,0,1,384,235.84Zm-3.56-1.31h3.16a2.37,2.37,0,0,1-.4-1.18l.13-.13a3.55,3.55,0,0,1,.4.52,1.46,1.46,0,0,0,1.19.79,3.69,3.69,0,0,0,.12-1.05V227.8q-.15-3.95-.15-5.93l-.26-.26h-.4q-5.79,1.33-6.45,3.83a13,13,0,0,0,2.24-.26c.88-.09,1.54-.14,2-.14.26,0,.4.18.4.53s-1,.75-3,.93c-1.67.26-2.46.53-2.36.79v2.9a2.69,2.69,0,0,1,.13,1.05h.14l4.34-1.46h.14a4.59,4.59,0,0,1,.92-.26.48.48,0,0,1,.39.66.5.5,0,0,1-.39.52c-1.67.54-3.38,1.11-5.14,1.73,0,.17-.13.26-.39.26V233a1,1,0,0,0,.13.39v.26c0,.09-.09.18-.26.27a.41.41,0,0,0-.26.39q0,.27.39.27ZM377.39,229c0-.35.27-.61.79-.79,1.32-.17,2.55-.4,3.69-.66.27,0,.4-.05.4-.14a.35.35,0,0,1,.26-.13c.53.09.79.22.79.4,0,.52-1.09,1-3.29,1.45h-.27a3.57,3.57,0,0,0-.79.13,2.89,2.89,0,0,1-.91.27C377.61,229.53,377.39,229.36,377.39,229Z"/></svg>